<?xml version="1.0" standalone="no"?>
<!DOCTYPE svg PUBLIC "-//W3C//DTD SVG 1.1//EN" "http://www.w3.org/Graphics/SVG/1.1/DTD/svg11.dtd" >
<!--
2013-9-30: Created.
-->
<svg>
<metadata>
Created by iconfont
</metadata>
<defs>

<font id="iconfont" horiz-adv-x="1024" >
  <font-face
    font-family="iconfont"
    font-weight="500"
    font-stretch="normal"
    units-per-em="1024"
    ascent="896"
    descent="-128"
  />
    <missing-glyph />
    
    <glyph glyph-name="x" unicode="x" horiz-adv-x="1001"
d="M281 543q-27 -1 -53 -1h-83q-18 0 -36.5 -6t-32.5 -18.5t-23 -32t-9 -45.5v-76h912v41q0 16 -0.5 30t-0.5 18q0 13 -5 29t-17 29.5t-31.5 22.5t-49.5 9h-133v-97h-438v97zM955 310v-52q0 -23 0.5 -52t0.5 -58t-10.5 -47.5t-26 -30t-33 -16t-31.5 -4.5q-14 -1 -29.5 -0.5
t-29.5 0.5h-32l-45 128h-439l-44 -128h-29h-34q-20 0 -45 1q-25 0 -41 9.5t-25.5 23t-13.5 29.5t-4 30v167h911zM163 247q-12 0 -21 -8.5t-9 -21.5t9 -21.5t21 -8.5q13 0 22 8.5t9 21.5t-9 21.5t-22 8.5zM316 123q-8 -26 -14 -48q-5 -19 -10.5 -37t-7.5 -25t-3 -15t1 -14.5
t9.5 -10.5t21.5 -4h37h67h81h80h64h36q23 0 34 12t2 38q-5 13 -9.5 30.5t-9.5 34.5q-5 19 -11 39h-368zM336 498v228q0 11 2.5 23t10 21.5t20.5 15.5t34 6h188q31 0 51.5 -14.5t20.5 -52.5v-227h-327z" />
    

    
    <glyph glyph-name="jiahao" unicode="&#58937;" d="M896.055296 363.911936 576.03584 363.911936 576.03584 683.931392 448.027648 683.931392 448.027648 363.911936 128.007168 363.911936 128.007168 235.903744 448.027648 235.903744 448.027648-84.116736 576.03584-84.116736 576.03584 235.903744 896.055296 235.903744Z"  horiz-adv-x="1024" />

    
    <glyph glyph-name="jianhao" unicode="&#58903;" d="M46.501541 375.157258l930.396269 0 0-155.067251-930.396269 0 0 155.067251Z"  horiz-adv-x="1024" />

    
    <glyph glyph-name="shangchengxitongtubiaozitihuayuanwenjian58" unicode="&#59180;" d="M530.432-35.104 238.656-35.104c-42.496 0-77.056 34.624-77.056 77.12L161.6 606.944C161.6 649.44 196.16 684 238.656 684l476.992 0c42.496 0 77.12-34.56 77.12-77.056l0-348.672c0-6.848-5.568-12.416-12.416-12.416C773.568 245.856 768 251.424 768 258.272L768 606.944c0 28.864-23.424 52.288-52.288 52.288L238.656 659.232c-28.8 0-52.288-23.424-52.288-52.288l0-564.928c0-28.864 23.488-52.224 52.288-52.224l291.776 0c6.784 0 12.352-5.632 12.352-12.352C542.784-29.472 537.28-35.104 530.432-35.104zM718.592-84c-79.36 0-143.872 64.512-143.872 143.872s64.512 143.872 143.872 143.872c79.296 0 143.808-64.512 143.808-143.872S797.888-84 718.592-84zM718.592 178.976c-65.664 0-119.104-53.504-119.104-119.104s53.44-119.104 119.104-119.104c65.6 0 119.04 53.504 119.04 119.104S784.192 178.976 718.592 178.976zM718.656 47.648c-6.848 0-12.352 5.504-12.352 12.352L706.304 133.6c0 6.848 5.504 12.352 12.352 12.352s12.352-5.504 12.352-12.352l0-73.6C731.072 53.152 725.568 47.648 718.656 47.648zM778.24 47.52l-59.712 0c-6.848 0-12.416 5.504-12.416 12.352s5.568 12.352 12.416 12.352l59.712 0c6.848 0 12.352-5.504 12.352-12.352S785.152 47.52 778.24 47.52zM319.424 117.984 174.016 117.984c-6.848 0-12.352 5.504-12.352 12.352L161.664 430.112c0 6.848 5.504 12.352 12.352 12.352l145.408 0c6.848 0 12.352-5.504 12.352-12.352l0-299.776C331.84 123.488 326.336 117.984 319.424 117.984zM186.368 142.752l120.704 0L307.072 417.696 186.368 417.696 186.368 142.752zM462.912 40.096c-33.856 0-61.44 27.52-61.44 61.504 0 33.856 27.584 61.504 61.44 61.504 33.92 0 61.568-27.648 61.568-61.504C524.48 67.616 496.896 40.096 462.912 40.096zM462.912 138.272c-20.16 0-36.672-16.384-36.672-36.608s16.512-36.736 36.672-36.736c20.288 0 36.736 16.512 36.736 36.736S483.264 138.272 462.912 138.272zM534.912 117.984c-4.928 0-9.536 3.008-11.52 7.744-9.92 24.896-33.664 40.896-60.48 40.896-26.688 0-50.432-16-60.416-40.896-2.496-6.4-9.728-9.344-16.128-6.848-6.336 2.624-9.408 9.728-6.848 16.128 13.824 34.24 46.592 56.512 83.456 56.512 36.992 0 69.76-22.272 83.456-56.512 2.56-6.4-0.512-13.504-6.848-16.128C537.984 118.24 536.448 117.984 534.912 117.984zM575.36 117.984 534.912 117.984c-6.784 0-12.416 5.504-12.416 12.352s5.632 12.352 12.416 12.352l28.032 0 0 96-72.384 124.8L363.008 363.488l0-220.864 28.032 0c6.848 0 12.352-5.504 12.352-12.352s-5.504-12.352-12.352-12.352L350.656 117.92c-6.848 0-12.416 5.504-12.416 12.352L338.24 375.968c0 6.848 5.568 12.352 12.416 12.352l147.072 0c4.416 0 8.512-2.368 10.752-6.144l77.632-133.824c1.152-1.856 1.664-4.032 1.664-6.272l0-111.744C587.776 123.488 582.208 117.984 575.36 117.984zM531.968 228.256 383.296 228.256c-6.848 0-12.352 5.504-12.352 12.352l0 97.92c0 6.848 5.504 12.352 12.352 12.352L482.56 350.88c4.352 0 8.448-2.304 10.688-6.08l49.344-83.84c1.152-1.856 1.728-4.032 1.728-6.272l0-14.144C544.384 233.76 538.816 228.256 531.968 228.256zM395.712 252.96l122.944 0L475.52 326.112 395.712 326.112 395.712 252.96z"  horiz-adv-x="1024" />

    
    <glyph glyph-name="address" unicode="&#58892;" d="M124.096 625.535c0-198.144 0-396.544 0-595.008 4.8-4.863 8.704-10.304 14.4-13.696 52.48-28.991 105.472-57.344 157.824-86.464 9.408-5.312 17.664-5.504 27.072-0.896 60.352 28.032 120.768 55.808 181.248 84.032 4.863 2.24 8.832 2.24 14.016-0.256 55.36-27.968 110.72-55.424 166.145-83.392 9.344-4.8 17.28-4.8 26.497 0 57.472 28.992 115.2 57.92 173.12 86.272 10.944 5.503 15.488 12.736 15.488 24.832-0.256 191.616-0.256 383.296-0.256 574.912 0 3.905-0.128 7.424-1.088 11.008-1.984 8-8.32 12.288-16.448 10.88-3.584-0.64-7.296-2.048-10.368-3.584-55.68-27.776-111.104-55.36-166.528-83.392-5.12-2.56-8.832-2.688-14.081-0.128-55.296 27.968-110.848 55.424-166.208 83.52-8.96 4.416-16.896 4.224-25.664 0.256-60.672-28.224-121.216-56.192-181.888-84.352-4.544-1.984-8.193-1.984-12.672 0.384-50.944 28.16-102.080 56.128-153.28 83.968-12.928 7.168-21.312 4.352-27.328-8.896zM496.704 598.845c0-3.072 0-4.736 0-6.336 0-180.8 0-361.6 0.128-542.207 0-5.248-1.921-7.296-6.528-9.472-52.416-24.128-104.768-48.384-157.183-72.704-2.112-0.96-4.352-1.6-6.912-2.688-0.192 1.728-0.448 3.008-0.448 4.288 0 181.439 0 362.816 0 544.575 0 4.992 2.048 6.912 6.144 8.576 38.272 17.536 76.608 35.2 114.624 52.928 16.128 7.296 32.512 14.912 50.176 23.040zM713.856-33.73c-0.192 2.816-0.32 5.248-0.32 7.616 0 179.648 0 359.616-0.256 539.712 0 4.8 1.344 7.616 6.080 9.664 47.616 23.936 95.104 47.488 142.656 71.36 1.792 0.704 3.776 1.409 6.528 2.496 0-3.135 0-5.504 0-7.681 0-179.713 0-359.297 0.192-538.88 0-5.312-1.472-7.872-6.208-10.304-47.424-23.744-94.655-47.36-142.016-71.232-1.856-0.896-4.032-1.599-6.656-2.751zM682.623-33.987c-3.776 1.536-6.016 2.56-8.32 3.776-46.656 23.232-93.248 46.72-139.968 69.952-5.632 2.688-7.232 5.568-7.232 11.648 0.257 178.944 0.256 358.208 0.256 537.536 0 2.304 0.192 5.184 0.384 8.448 3.456-1.472 5.888-2.56 8.256-3.584 46.528-23.36 92.864-46.464 139.52-69.632 5.503-2.624 7.36-5.76 7.36-12.032-0.256-179.136-0.256-357.696-0.256-536.768 0-2.688 0-5.631 0-9.344zM294.848-32.834c-2.624 1.152-4.032 1.599-5.312 2.112-43.072 23.68-86.208 47.36-129.344 70.911-4.929 2.752-4.928 5.952-4.928 10.496 0 178.88 0 357.761 0 536.96 0 2.56 0 5.185 0 8.768 3.712-1.792 6.4-2.88 8.576-4.096 41.088-22.464 81.856-44.799 123.008-67.008 6.144-3.072 8.192-6.912 8.193-13.824-0.192-178.496-0.192-356.48-0.192-534.656 0-2.688 0-5.504 0-9.663z"  horiz-adv-x="1024" />

    
    <glyph glyph-name="peisongzhong" unicode="&#58907;" d="M782.386662 458.095691 611.198791 458.095691c-5.197372 0-10.237155-0.704035-15.038508-2.001587l0 75.986625c0 31.907711-26.106588 58.014298-58.014298 58.014298L376.8146 590.095028c-34.148751 45.655829-88.645946 75.206866-150.046365 75.206866-103.418394 0-187.255825-83.83743-187.255825-187.255825 0-45.934169 16.548908-87.99717 43.99705-120.575146l0-284.941658c0-31.908734 26.106588-58.014298 58.014298-58.014298l74.291007 0c14.112416-46.204321 57.081043-79.815837 107.905592-79.815837s93.793176 33.611515 107.905592 79.815837l106.520035 0c13.384845 0 25.738198 4.606925 35.582403 12.296047 10.127661-8.610098 23.216771-13.831007 37.470403-13.831007l62.494333 0c14.58723-45.411259 57.161884-78.280878 107.421568-78.280878s92.835362 32.869618 107.423615 78.280878l37.933961 0c31.907711 0 58.013275 26.106588 58.013275 58.014298L984.485543 255.995787 782.386662 458.095691zM86.173127 478.046069c0 77.648474 62.946634 140.595109 140.595109 140.595109 77.648474 0 140.595109-62.946634 140.595109-140.595109 0-77.648474-62.946634-140.595109-140.595109-140.595109C149.119761 337.45096 86.173127 400.397594 86.173127 478.046069zM323.720358-22.785567c-38.824237 0-70.297043 31.472805-70.297043 70.297043s31.472805 70.297043 70.297043 70.297043 70.298066-31.472805 70.298066-70.297043S362.544595-22.785567 323.720358-22.785567zM548.312532 97.243133c0-15.954367-13.053294-29.007661-29.007661-29.007661l-84.677565 0c-9.731642 52.40658-55.682183 92.090395-110.906949 92.090395s-101.17633-39.683814-110.906949-92.090395l-52.448536 0c-15.954367 0-29.007661 13.053294-29.007661 29.007661L131.357212 316.901948c27.943422-16.58063 60.562331-26.111704 95.411023-26.111704 103.418394 0 187.255825 83.83743 187.255825 187.255825 0 20.366863-3.264347 39.97034-9.276271 58.32743l114.558106 0c15.954367 0 29.007661-13.053294 29.007661-29.007661L548.313555 97.243133zM904.116097 274.454184c-2.693342-8.818853-10.9197-15.283078-20.589944-15.283078L683.950745 259.171106c-11.838629 0-21.526269 9.685593-21.526269 21.527292L662.424476 320.318768c0 11.838629 9.68764 21.526269 21.526269 21.526269l152.775522 0L904.116097 274.454184zM781.114692-22.785567c-38.823214 0-70.296019 31.472805-70.296019 70.297043s31.472805 70.297043 70.296019 70.297043c38.824237 0 70.298066-31.472805 70.298066-70.297043S819.939953-22.785567 781.114692-22.785567zM938.797991 86.497395c0-15.954367-13.053294-29.007661-29.007661-29.007661l-16.306384 0c-5.052063 57.630558-53.42784 102.836133-112.370277 102.836133-58.941414 0-107.317191-45.205575-112.369254-102.836133l-45.983287 0c-11.867282 0-22.12388 7.224542-26.602891 17.49035L596.158237 396.093569c4.479011 10.265808 14.735609 17.489326 26.602891 17.489326l142.225235 0 38.703487-38.70451L675.368276 374.878384c-23.679305 0-43.052538-19.374256-43.052538-43.052538l0-62.633502c0-23.680329 19.374256-43.051515 43.052538-43.051515l220.536812 0c15.270798 0 28.740578 8.06263 36.389792 20.136619l6.503111-6.504134L938.797991 86.497395zM254.170329 471.360809c0 8.208962-3.794419 15.527648-9.720386 20.311605l0 88.638783c0 6.78145-5.498224 12.279674-12.279674 12.279674l-8.18645 0c-6.78145 0-12.279674-5.498224-12.279674-12.279674l0-88.63776c-3.111874-2.511193-5.632277-5.723352-7.326872-9.395998l-86.700641 0c-6.028297 0-10.915607-4.886287-10.915607-10.915607 0-6.028297 4.88731-10.915607 10.915607-10.915607l86.700641 0c4.133134-8.956999 13.187347-15.177678 23.699772-15.177678C242.488265 445.268548 254.170329 456.950611 254.170329 471.360809z"  horiz-adv-x="1024" />

    
    <glyph glyph-name="yiwancheng" unicode="&#58909;" d="M512 684C299.922285 684 128 512.077715 128 300 128 87.922285 299.922285-84 512-84 724.077715-84 896 87.922285 896 300 896 512.077715 724.077715 684 512 684L512 684ZM512.000003-18.171431C336.57716-18.171431 193.828574 125.140618 193.828574 300.363207 193.828574 475.585796 336.57716 618.171424 512.000003 618.171424 687.422846 618.171424 830.17143 475.585796 830.17143 300.363207 830.17143 125.140618 687.422846-18.171431 512.000003-18.171431L512.000003-18.171431ZM467.69405 245.588618C455.459796 233.223737 435.775791 233.574906 423.76743 246.331715L369.203116 304.296878C357.177367 317.072159 337.396697 316.79224 325.438577 304.113598L322.114979 300.589742C309.97024 287.713238 310.135279 266.766534 322.346183 253.948223L427.696139 143.357862C437.767546 132.785475 454.082047 132.785475 464.153455 143.357862 464.742426 143.97613 701.737695 387.054013 701.737695 387.054013 713.939405 399.568936 713.808339 419.677946 701.308419 432.104472L699.093855 434.306033C686.655062 446.671791 666.644381 446.66318 654.419354 434.307622L467.69405 245.588618Z"  horiz-adv-x="1024" />

    
    <glyph glyph-name="dingdan" unicode="&#58890;" d="M818.603 718.766l-55.879 0c-15.456 0-33.289-9.51-33.289-24.967 0-15.456 17.833-30.912 33.289-30.912l55.879 0c33.289 0 55.879-22.59 55.879-55.879l0-643.191c0-33.289-22.59-55.879-55.879-55.879L217.021-92.062c-33.289 0-70.143 22.59-70.143 55.879L146.878 607.007c0 33.289 22.59 55.879 55.879 55.879L272.9 662.886c15.456 0 21.401 15.457 21.401 30.912 0 15.457-5.945 24.967-21.401 24.967l-70.142 0C124.289 718.766 91 670.021 91 605.82l0-636.058c0-68.955 41.611-117.699 117.699-117.699l603.957 0c76.093 0 117.704 40.423 117.704 117.699L930.36 605.82C930.36 670.021 891.126 718.766 818.603 718.766L818.603 718.766zM272.9 466.718c0-15.456 13.081-28.531 28.532-28.531l419.68 0c15.456 0 28.536 13.075 28.536 28.531 0 15.457-13.08 28.536-28.536 28.536l-419.68 0C285.981 495.254 272.9 482.175 272.9 466.718L272.9 466.718zM719.924 340.696 301.432 340.696c-15.451 0-28.532-13.079-28.532-28.536 0-15.452 13.081-28.531 28.532-28.531l419.68 0c15.456 0 28.536 13.079 28.536 28.531C748.46 328.805 735.38 340.696 719.924 340.696L719.924 340.696zM719.924 173.064 301.432 173.064c-15.451 0-28.532-13.08-28.532-28.537 0-15.455 13.081-28.53 28.532-28.53l419.68 0c15.456 0 28.536 13.075 28.536 28.53C748.46 161.173 735.38 173.064 719.924 173.064L719.924 173.064zM414.378 648.619l194.98 0c22.591 0 41.611 22.59 41.611 48.746 0 26.154-19.021 48.745-42.799 48.745L414.378 746.11c-23.778 0-42.799-22.59-42.799-48.745C371.579 671.209 390.6 648.619 414.378 648.619L414.378 648.619zM414.378 648.619"  horiz-adv-x="1024" />

    
    <glyph glyph-name="wodedingdan" unicode="&#58906;" d="M690.478416 599.104215c0-13.502525-14.051017-24.428366-31.394011-24.428366L199.737602 574.67585c-17.344017 0-31.41857 10.92584-31.41857 24.428366l0 0c0 13.502525 14.074553 24.428366 31.41857 24.428366L659.084405 623.532581C676.426375 623.532581 690.478416 612.606741 690.478416 599.104215L690.478416 599.104215zM608.033705 409.785405c0-13.502525-11.831466-24.428366-26.431999-24.428366L194.77559 385.35704c-14.600533 0-26.456558 10.924817-26.456558 24.428366l0 0c0 13.502525 11.856026 24.427342 26.456558 24.427342l386.826116 0C596.201216 434.212748 608.033705 423.287931 608.033705 409.785405L608.033705 409.785405zM516.427334 220.608835c0-13.502525-9.353019-24.429389-20.921495-24.429389L189.264063 196.179446c-11.545964 0-20.945031 10.926864-20.945031 24.429389l0 0c0 13.500479 9.399067 24.429389 20.945031 24.429389l306.241776 0C507.074316 245.038224 516.427334 234.109314 516.427334 220.608835L516.427334 220.608835zM492.142232-16.710198c-9.494235-14.693654-25.839505-21.040199-36.455283-14.216793l0 0c-10.616802 6.869455-11.522428 24.379247-2.003634 39.120996L925.14811 737.420421c9.518794 14.6957 25.812899 21.040199 36.428677 14.170744l0 0c10.639315-6.870478 11.544941-24.356734 2.026146-39.052434L492.142232-16.710198zM868.084463 446.665361l0-527.260565c0-38.693254-30.010501-70.184479-66.892503-70.184479L169.559279-150.779683c-36.880979 0-66.89148 31.490202-66.89148 70.184479L102.667799 680.548132c0 38.742373 30.010501 70.231551 66.89148 70.231551l624.73969 0L794.298969 799.636415 169.559279 799.636415c-63.837934 0-115.748211-53.41249-115.748211-119.088282l0-761.143337c0-65.651232 51.9113-119.04121 115.748211-119.04121l631.632681 0c63.815421 0 115.749234 53.389978 115.749234 119.04121L916.941194 446.665361 868.084463 446.665361z"  horiz-adv-x="1024" />

    
    <glyph glyph-name="kefurexian" unicode="&#58965;" d="M656.36855-51.587544l-511.989767 0.01535 0 83.225493c1.096984 19.850094 16.240893 38.035268 46.279023 55.579853 29.639041 17.311271 68.633147 30.896684 103.037724 42.88267 35.727713 12.446473 66.581418 23.196305 83.845617 36.623106 55.102992 42.878576 39.711444 98.803283 39.028898 101.163027-1.119497 3.871167-3.511987 7.252171-6.79066 9.595542-7.450692 5.325285-35.697013 40.464597-57.594743 69.968561-0.707105 0.952698-1.50733 1.832741-2.388397 2.626827-27.808346 25.073048-42.869367 48.554856-42.408879 66.121953 0.274246 10.426467 6.191003 16.074094 7.28287 17.028838 4.665253 3.139503 6.885827 7.828292 7.164167 13.472849l3.090385 62.602803c0.044002 0.890276 0.026606 1.730411-0.062422 2.617617-0.065492 0.698918-6.019087 70.122057 43.321668 93.973278 0.559748 0.270153 1.105171 0.569982 1.63422 0.89744 0.289596 0.179079 29.430286 18.122753 67.712171 32.980135 48.803519 18.939351 89.575108 24.103978 117.901247 14.933107 19.978007-6.466272 33.989115-20.060895 42.830481-41.557488 2.816139-6.844895 9.580193-11.239995 16.951067-11.091616 0.236384-0.020466 16.528442-0.382717 30.066783-16.266475 14.688537-17.235546 28.952402-55.532781 13.481036-140.099828-1.311879-7.16826 1.301645-14.052041 7.430226-17.959024 1.159406-0.899486 8.944719-7.371898 9.100262-18.819624 0.14224-10.473539-6.157233-33.133631-49.928133-67.219961-2.65855-2.069125-4.677533-4.846378-5.827729-8.012488-0.149403-0.407276-15.286148-41.165562-56.431244-76.709079-4.927219-4.257977-7.15598-10.855232-5.819542-17.229406 0.312108-1.485841 7.985882-36.597523 38.504966-54.736649 8.500605-5.052063 19.48989-2.25639 24.542976 6.245238 5.053086 8.502651 2.257413 19.490913-6.244214 24.542976-9.671267 5.747911-15.408945 15.223726-18.546402 22.269189 33.602306 32.048927 50.211589 65.826218 55.623855 78.372975 40.733727 32.642444 60.886719 64.308655 59.909461 94.160543-0.590448 18.047028-8.622378 30.761608-15.400758 38.346353 12.134365 73.989131 4.364401 127.815037-23.13593 160.081928-15.712867 18.435884-33.79878 25.117051-45.633317 27.519774-13.228279 25.973558-33.519418 43.523259-60.443627 52.238758-83.298148 26.959002-202.784496-43.792389-214.70499-51.0507-29.759791-14.705933-50.003857-41.908482-58.574047-78.730109-5.41022-23.2444-4.491291-43.485397-4.088108-49.092092l-2.686179-54.42147c-6.0416-6.840802-13.84124-18.97926-14.759145-36.68962-1.5104-29.115108 16.262382-60.771085 52.828182-94.109378 11.146874-14.97711 41.243333-54.751998 58.443064-71.188342 1.223874-10.45205 0.871857-36.531008-27.371394-58.508555-12.614296-9.810437-42.25436-20.137643-73.636091-31.069623-75.743078-26.387997-170.007999-59.228963-173.330674-131.004683-0.01228-0.276293-0.019443-0.552585-0.019443-0.828878l0-101.58463c0-9.890254 8.016581-17.907858 17.907858-17.907858l529.896602-0.016373c0.001023 0 0 0 0.001023 0 9.889231 0 17.907858 8.017604 17.907858 17.906835C674.275385-59.606171 666.258805-51.587544 656.36855-51.587544zM901.373637-13.63107l-0.488117 0.845251-30.30112 41.444924c-5.997598 8.369621-15.566534 12.976546-26.962072 12.976546-13.58132 0-27.195386-6.482645-32.166607-9.116635-5.385661-1.855254-10.997472-2.795673-16.700357-2.795673L794.754341 29.723344c-18.210757 0.001023-38.107923 9.700943-57.536414 28.048823-18.910699 17.868973-18.97619 40.778752-18.126846 49.798173 1.406023 14.933107 7.649214 25.210172 13.20986 28.768207 14.754029 9.441023 23.087834 20.687158 24.769127 33.426297 1.688455 12.798491-4.078899 22.058388-6.968715 25.78834l-27.040866 41.125653c-5.211698 8.55484-18.33867 17.289782-33.44881 17.289782-9.676383 0-23.970948-3.530406-37.113269-20.351514-10.745738-13.754259-19.108197-34.122145-25.562189-62.261019-6.997368-30.478152-7.606235-60.058864-1.809205-87.921445 5.133927-24.666796 15.284101-48.055482 30.169113-69.515237C697.581184-47.032808 766.306428-76.789529 799.686676-81.227608c5.501294-0.733711 11.287067-1.105171 17.197684-1.105171 22.406313 0.001023 45.133943 5.28026 63.998593 14.866592 15.422248 7.840572 21.306258 18.388812 23.526833 25.856901C908.646274-27.358723 902.623094-15.803549 901.373637-13.63107zM870.080933-31.398736c-0.00614-0.017396-0.782829-1.778506-5.427616-4.140297-13.929244-7.079232-30.894637-10.978029-47.771003-10.979052-4.331655 0-8.525164 0.26606-12.470009 0.792039-28.499078 3.78828-86.24527 31.853475-119.685893 80.059384-26.174126 37.732369-33.872458 81.136925-22.880103 129.011282 10.313903 44.961004 23.541159 54.807257 27.767414 54.807257 1.524726 0 2.965541-0.839111 3.6399-1.329275l28.118408-42.766013c-0.543376-1.027399-2.426259-3.746324-8.373715-7.552-16.21224-10.375302-27.263947-31.151487-29.565363-55.57883-2.835581-30.118971 7.801686-58.982346 29.189809-79.192643 26.203802-24.747637 54.604642-37.82856 82.130555-37.829584 0.001023 0 0.001023 0 0.002047 0 10.361999 0 20.546965 1.826602 30.270421 5.429663l1.295506 0.469698 1.252527 0.709151c3.650133 2.032286 10.835789 4.990664 15.358803 5.281283l27.196409-37.198204C870.099353-31.386456 870.07991-31.383386 870.080933-31.398736z"  horiz-adv-x="1024" />

    
    <glyph glyph-name="unie63a" unicode="&#59067;" d="M273.952 160.416l-158.688 0c-14.624 0-26.464-11.808-26.464-26.464l0-158.688c0-14.624 11.808-26.464 26.464-26.464l158.688 0c14.624 0 26.464 11.808 26.464 26.464l0 158.688c0 14.624-11.84 26.464-26.464 26.464zM247.488 28.16c0-14.624-11.808-26.464-26.464-26.464l-52.896 0c-14.624 0-26.464 11.808-26.464 26.464l0 52.896c0 14.624 11.84 26.464 26.464 26.464l52.896 0c14.624 0 26.464-11.808 26.464-26.464l0-52.896zM908.736 107.488l-476.096 0c-14.624 0-26.464-11.808-26.464-26.464l0-52.896c0-14.624 11.808-26.464 26.464-26.464l476.096 0c14.624 0 26.464 11.808 26.464 26.464l0 52.896c0 14.624-11.808 26.464-26.464 26.464zM908.736 424.896l-476.096 0c-14.624 0-26.464-11.808-26.464-26.464l0-52.896c0-14.624 11.808-26.464 26.464-26.464l476.096 0c14.624 0 26.464 11.808 26.464 26.464l0 52.896c0 14.624-11.808 26.464-26.464 26.464zM273.952 795.2l-158.688 0c-14.624 0-26.464-11.808-26.464-26.464l0-158.688c0-14.624 11.808-26.464 26.464-26.464l158.688 0c14.624 0 26.464 38.272 26.464 52.896l0 132.256c0 14.624-11.84 26.464-26.464 26.464zM247.488 662.944c0-14.624-11.808-26.464-26.464-26.464l-52.896 0c-14.624 0-26.464 11.84-26.464 26.464l0 52.896c0 14.624 11.84 26.464 26.464 26.464l52.896 0c14.624 0 26.464-11.808 26.464-26.464l0-52.896zM273.952 477.792l-158.688 0c-14.624 0-26.464-11.84-26.464-26.464l0-158.688c0-14.624 11.808-26.464 26.464-26.464l158.688 0c14.624 0 26.464 11.808 26.464 26.464l0 158.688c0 14.624-11.84 26.464-26.464 26.464zM247.488 345.536c0-14.624-11.808-26.464-26.464-26.464l-52.896 0c-14.624 0-26.464 11.808-26.464 26.464l0 52.896c0 14.624 11.84 26.464 26.464 26.464l52.896 0c14.624 0 26.464-11.84 26.464-26.464l0-52.896zM908.736 742.304l-476.096 0c-14.624 0-26.464-11.84-26.464-26.464l0-52.896c0-14.624 11.808-26.464 26.464-26.464l476.096 0c14.624 0 26.464 11.808 26.464 26.464l0 52.896c0 14.624-11.808 26.464-26.464 26.464z"  horiz-adv-x="1024" />

    
    <glyph glyph-name="wo" unicode="&#58888;" d="M850.904009 132.551657c-70.931351 50.459128-165.612567 10.666922-233.407491 100.5294 0 0-25.229564 100.465955 31.526978 169.83779 56.756542 69.371835 61.4883 179.742351 47.297118 264.884327-14.171739 85.138906-94.591166 141.895447-178.15623 141.895447-10.444865 0-40.296694-7.768925-40.296694 18.060295 0 22.845265-119.615046-86.668745-137.848279-159.956765-19.336355-77.721997-9.471703-195.512492 47.284838-264.884327 56.766775-69.371835 31.537211-169.83779 31.537211-169.83779-67.80311-89.862478-167.374697-54.876732-238.322421-105.33586C109.568246 77.296303 117.700444-45.993428 117.700444-45.993428l400.472127 0 400.462917 0C918.636511-45.993428 921.851733 82.101739 850.904009 132.551657z"  horiz-adv-x="1024" />

    
    <glyph glyph-name="wo1" unicode="&#58905;" d="M933.600155-128 89.431213-128l-5.680519 3.28697c-3.338169 1.927639-33.061697 19.28407-47.557389 31.331174-23.879173 19.808859-36.735219 47.641868-36.164352 78.353535l0.107518 8.235345c0.156157 16.501409 0.319993 33.573687 4.930455 50.977477 10.82345 40.996249 41.226644 67.565924 71.439122 91.30174 39.54988 31.095659 86.286806 57.474619 151.52318 85.521383 31.0675 13.355236 64.273834 26.165204 101.518483 39.090369 15.966381 5.547402 32.636746 22.906393 42.473337 44.191061 7.779675 16.831642 10.086186 33.617206 6.320506 45.430075l-1.817561 2.142674c-44.303699 53.721738-79.52855 101.395605-96.209156 184.144567-13.411555 66.472827-11.486476 129.279813 5.716359 186.666113C312.390955 810.660373 369.312626 867.858518 450.612658 888.094888c12.272379 3.059135 24.199166 5.214609 36.018435 6.476662l0 1.356771L536.390035 896l0-1.42845c11.806469-1.262053 23.758855-3.417527 36.041474-6.489462 81.287233-20.22357 138.196103-77.421715 164.571223-165.408325 17.177235-57.377341 19.102314-120.171526 5.724038-186.655874-16.726685-82.769441-51.940016-130.447148-96.229635-184.154807l-1.617886-1.907159c-0.071678-0.069119-0.117757-0.143357-0.166396-0.215035-3.77848-11.926787-1.471969-28.666271 6.297466-45.450554 9.837871-21.306427 26.492877-38.642379 42.460538-44.162902 37.139691-12.930285 70.333225-25.714654 101.533842-39.118529 65.221014-28.046764 111.934901-54.425723 151.52318-85.521383 28.868507-22.688798 60.590072-50.306771 71.426322-91.327339 4.584863-17.333392 4.751259-34.377509 4.917655-50.854599l0.120317-8.332623c0.568308-30.711667-12.285179-58.544676-36.189951-78.376574-14.494412-12.024064-44.173141-29.380496-47.52155-31.308135L933.600155-128zM511.415206 847.167758l-0.319993 0c-15.910062-0.084478-31.840603-2.175954-48.722165-6.392184-64.642466-16.081578-108.289539-60.533754-129.748283-132.123912-15.07552-50.319571-16.585888-103.638118-4.620702-162.981497 13.352676-66.188673 37.326567-103.696996 86.035932-162.766461 3.030976-3.512245 6.691698-7.761755 9.041728-13.805787 9.4206-24.355322 6.901613-55.429222-6.901613-85.308907-15.584949-33.709364-42.009987-59.78113-70.689058-69.754678-36.128512-12.548853-68.264789-24.93131-98.264792-37.833436-61.207019-26.306001-104.595537-50.711242-140.69973-79.090799-24.698355-19.381348-47.439632-38.976452-54.425723-65.42581-3.051455-11.501836-3.171773-24.831472-3.30233-38.949572l-0.107518-8.642376c-0.296954-16.045739 5.941634-29.475214 18.557046-39.928752 7.961431-6.620019 24.995309-17.213074 35.30933-23.400463l671.771965 0.258555 146.129375-0.258555c10.314021 6.187389 27.373498 16.806043 35.28629 23.377423 12.641011 10.475297 18.889839 23.904772 18.580085 39.926192l-0.120317 8.760134c-0.115198 14.072021-0.258555 27.383738-3.29977 38.833095-6.986092 26.474957-29.726088 46.070061-54.415484 65.451409-36.115713 28.379557-79.502951 52.784798-140.68949 79.090799-30.1024 12.950765-62.254037 25.333222-98.275032 37.853916-28.676511 9.953068-55.101549 36.024834-70.689058 69.734198-13.803227 29.879685-16.324773 60.953585-6.911853 85.283308 2.280912 6.010752 6.010752 10.296101 8.219985 12.856047 49.518308 60.034564 73.515238 97.553127 86.870474 163.7418 11.952386 59.356179 10.454818 112.674726-4.633502 162.981497-21.457464 71.590159-65.082777 116.042334-129.712444 132.113673-16.893081 4.22647-32.836422 6.317946-48.745204 6.402424L511.415206 847.169038z"  horiz-adv-x="1024" />

    
    <glyph glyph-name="left" unicode="&#58886;" d="M241.501 404.783l480.070 480.070c10.915 11.031 28.905 11.031 39.959 0 11.031-11.055 11.031-29.021 0-40.006l-460.847-460.847 460.847-460.847c11.031-11.055 11.031-28.951 0-40.006-11.055-11.055-29.044-11.055-39.959 0l-480.070 480.023c-5.748 5.702-8.332 13.312-8.122 20.829-0.209 7.517 2.397 15.081 8.122 20.783z"  horiz-adv-x="1024" />

    
    <glyph glyph-name="down" unicode="&#58887;" d="M491.217455 141.358545 11.147636 621.428364c-11.031273 10.938182-11.031273 28.928 0 39.982545 11.054545 11.008 29.021091 11.008 40.005818 0L512 200.541091l460.869818 460.846545c11.031273 11.008 28.928 11.008 40.005818 0 11.031273-11.054545 11.031273-29.044364 0-39.982545L532.829091 141.358545c-5.701818-5.725091-13.312-8.308364-20.829091-8.098909C504.482909 133.050182 496.919273 135.633455 491.217455 141.358545"  horiz-adv-x="1024" />

    
    <glyph glyph-name="right" unicode="&#58897;" d="M759.875001 360.360996 279.833911-119.726639c-10.938058-11.031147-28.927671-11.031147-39.982091 0-11.007875 11.077692-11.007875 29.044034 0 40.005364l460.841309 460.864581L239.85182 841.984614c-11.007875 11.031147-11.007875 28.950944 0 40.005364 11.05442 11.031147 29.044034 11.031147 39.982091 0l480.04109-480.017818c5.725026-5.701753 8.308269-13.311849 8.098817-20.828854C768.206543 373.6263 765.600027 366.062749 759.875001 360.360996"  horiz-adv-x="1024" />

    
    <glyph glyph-name="up" unicode="&#58898;" d="M491.217455 663.598545 11.147636 183.552c-11.031273-10.914909-11.031273-28.904727 0-39.959273 11.054545-11.031273 29.021091-11.031273 40.005818 0L512 604.439273 972.869818 143.592727c11.031273-11.031273 28.928-11.031273 40.005818 0 11.031273 11.054545 11.031273 29.044364 0 39.959273L532.829091 663.598545C527.127273 669.346909 519.517091 671.953455 512 671.720727 504.482909 671.953455 496.919273 669.346909 491.217455 663.598545"  horiz-adv-x="1024" />

    
    <glyph glyph-name="close" unicode="&#58899;" d="M512-128C229.701818-128 0 101.701818 0 384S229.701818 896 512 896c282.321455 0 512-229.701818 512-512S794.344727-128 512-128zM512 851.479273C254.231273 851.479273 44.544 641.792 44.544 384c0-257.768727 209.710545-467.479273 467.479273-467.479273 257.792 0 467.479273 209.733818 467.479273 467.479273C979.502545 641.792 769.792 851.479273 512 851.479273zM666.693818 203.822545c-5.701818 0-11.403636 2.164364-15.755636 6.493091L342.690909 518.609455c-8.704 8.704-8.704 22.784 0 31.488 8.704 8.704 22.784 8.704 31.488 0L682.426182 241.803636c8.704-8.680727 8.704-22.784 0-31.488C678.097455 205.986909 672.418909 203.822545 666.693818 203.822545zM354.048 203.799273c-5.701818 0-11.380364 2.187636-15.732364 6.493091-8.704 8.704-8.704 22.784 0 31.488L654.196364 557.661091c8.704 8.704 22.784 8.704 31.488 0 8.680727-8.704 8.680727-22.784 0-31.488L369.803636 210.292364C365.451636 205.986909 359.749818 203.799273 354.048 203.799273z"  horiz-adv-x="1024" />

    
    <glyph glyph-name="search" unicode="&#58900;" d="M467.921455-33.629091c-253.998545 0-460.637091 206.638545-460.637091 460.613818 0 254.021818 206.638545 460.660364 460.637091 460.660364s460.637091-206.638545 460.637091-460.660364C928.558545 173.009455 721.943273-33.629091 467.921455-33.629091zM467.921455 841.099636c-228.328727 0-414.091636-185.762909-414.091636-414.114909 0-228.328727 185.762909-414.068364 414.091636-414.068364 228.352 0 414.091636 185.739636 414.091636 414.068364C882.013091 655.336727 696.273455 841.099636 467.921455 841.099636zM994.629818-119.645091c-5.701818 0-11.426909 2.094545-15.941818 6.306909l-220.066909 206.592c-9.355636 8.797091-9.844364 23.552-1.047273 32.907636 8.820364 9.355636 23.552 9.797818 32.907636 1.047273l220.066909-206.592c9.355636-8.797091 9.844364-23.552 1.047273-32.907636C1007.034182-117.178182 1000.843636-119.645091 994.629818-119.645091z"  horiz-adv-x="1024" />

    
    <glyph glyph-name="add" unicode="&#58901;" d="M515.863273-128c-282.321455 0-512 229.678545-512 512 0 282.298182 229.678545 512 512 512s512-229.701818 512-512C1027.863273 101.678545 798.184727-128 515.863273-128zM515.863273 851.479273C258.094545 851.479273 48.384 641.768727 48.384 384s209.710545-467.502545 467.479273-467.502545S983.342545 126.231273 983.342545 384 773.632 851.479273 515.863273 851.479273zM750.126545 364.450909c-4.026182-4.002909-9.565091-6.516364-15.732364-6.516364L298.449455 357.934545c-12.311273 0-22.272 9.960727-22.272 22.272 0 12.288 9.960727 22.248727 22.248727 22.248727l435.968 0c12.334545 0.023273 22.295273-9.937455 22.272-22.248727C756.689455 374.039273 754.176 368.477091 750.126545 364.450909zM531.595636 144.872727c-4.026182-4.026182-9.611636-6.516364-15.732364-6.493091-12.334545-0.023273-22.295273 9.960727-22.272 22.248727l-0.023273 446.72c0 12.288 9.960727 22.248727 22.272 22.248727 12.311273 0 22.272-9.960727 22.248727-22.248727l0-446.72C538.088727 154.484364 535.621818 148.875636 531.595636 144.872727z"  horiz-adv-x="1028" />

    
    <glyph glyph-name="location" unicode="&#58902;" d="M512-123.834182C512-123.834182 512-123.834182 512-123.834182c-8.657455 0-16.593455 4.794182-20.619636 12.450909l-258.56 492.846545c-0.046545 0.069818-0.093091 0.162909-0.139636 0.256-34.234182 53.457455-52.340364 115.130182-52.340364 178.478545 0 182.853818 148.782545 331.636364 331.636364 331.636364s331.636364-148.782545 331.636364-331.636364c0-58.018909-15.476364-115.269818-44.776727-165.818182-0.325818-0.837818-0.698182-1.629091-1.117091-2.443636L532.596364-111.406545C528.570182-119.063273 520.634182-123.834182 512-123.834182zM275.223273 400.826182l236.823273-451.374545 242.711273 460.730182c0.512 1.559273 1.210182 3.072 2.048 4.514909 26.368 44.218182 40.285091 94.533818 40.285091 145.501091 0 157.207273-127.883636 285.090909-285.090909 285.090909S226.909091 717.405091 226.909091 560.197818c0-55.179636 15.965091-108.869818 46.173091-155.229091C273.943273 403.642182 274.664727 402.269091 275.223273 400.826182zM512 442.181818c-59.345455 0-107.636364 48.290909-107.636364 107.636364S452.654545 657.454545 512 657.454545c59.345455 0 107.636364-48.290909 107.636364-107.636364S571.345455 442.181818 512 442.181818zM512 610.909091c-33.675636 0-61.090909-27.415273-61.090909-61.090909S478.324364 488.727273 512 488.727273s61.090909 27.415273 61.090909 61.090909S545.675636 610.909091 512 610.909091z"  horiz-adv-x="1024" />

    
    <glyph glyph-name="gouwugouwuchedinggou" unicode="&#59010;" d="M979.584 631.552c-10.368 12.928-26.24 20.352-43.52 20.352L231.168 651.904l-42.368 172.8c-3.072 12.672-14.592 21.632-27.648 21.632L61.568 846.336c-15.744 0-28.416-12.8-28.416-28.416s12.8-28.416 28.416-28.416l77.312 0 159.744-651.392c-41.088-16.768-70.144-57.088-70.144-104.064 0-61.952 50.432-112.384 112.384-112.384s112.384 50.432 112.384 112.384c0 20.096-5.376 39.04-14.72 55.424l184.576 0c-9.344-16.384-14.72-35.328-14.72-55.424 0-61.952 50.432-112.384 112.384-112.384 61.952 0 112.384 50.432 112.384 112.384 0 61.952-50.432 112.384-112.384 112.384-0.512 0-1.152 0-1.664 0-0.256 0-0.64 0-0.896 0L355.2 146.432l-15.872 64.64 467.712 0c23.296 0 44.032 14.08 51.456 34.56l129.024 336.64c0 0.128 0 0.128 0.128 0.256 0.128 0.256 0.128 0.384 0.256 0.64C993.792 599.68 990.72 617.728 979.584 631.552zM396.288 34.048c0-30.592-24.832-55.424-55.424-55.424S285.44 3.456 285.44 34.048c0 30.592 24.832 55.424 55.424 55.424C371.456 89.472 396.288 64.512 396.288 34.048zM720.768-21.504c-30.592 0-55.424 24.832-55.424 55.424 0 30.592 24.832 55.424 55.424 55.424 30.592 0 55.424-24.832 55.424-55.424C776.192 3.456 751.36-21.504 720.768-21.504zM806.272 267.904 325.376 267.904l-80.256 327.04 686.464 0L806.272 267.904zM380.032 466.944l375.68 0c15.744 0 28.416 12.8 28.416 28.416s-12.8 28.416-28.416 28.416L380.032 523.776c-15.744 0-28.416-12.8-28.416-28.416S364.288 466.944 380.032 466.944zM722.944 395.904 412.8 395.904c-15.744 0-28.416-12.8-28.416-28.416 0-15.744 12.8-28.416 28.416-28.416l310.144 0c15.744 0 28.416 12.8 28.416 28.416C751.36 383.232 738.56 395.904 722.944 395.904z"  horiz-adv-x="1024" />

    
    <glyph glyph-name="wodexiaoxi" unicode="&#58978;" d="M953.6 646.4l0-518.4c0 0 0-6.4 0-6.4l-12.8-19.2c0 0-6.4 0-6.4 0 0 0 0 0 0 0-6.4 0-6.4 0-12.8 0L96 102.4c-6.4 0-6.4 0-12.8 0 0 0 0 0 0 0 0 0-6.4 0-6.4 0l-12.8 19.2c0 0 0 6.4 0 6.4L64 646.4c0 0 0 6.4 0 6.4l12.8 19.2c0 0 6.4 0 6.4 0 0 0 0 0 0 0 0 0 6.4 0 6.4 0 0 0 0 0 0 0 0 0 6.4 0 6.4 0l825.6 0c0 0 6.4 0 6.4 0 0 0 0 0 0 0 0 0 6.4 0 6.4 0 0 0 0 0 0 0 0 0 6.4 0 6.4 0l12.8-19.2C953.6 652.8 953.6 646.4 953.6 646.4zM921.6 620.8 691.2 384l230.4-236.8L921.6 620.8zM512 256l384 384L128 640 512 256zM889.6 128l-230.4 230.4-128-134.4c-12.8-12.8-32-12.8-44.8 0l-128 134.4L134.4 128 889.6 128zM102.4 147.2 332.8 384 102.4 620.8 102.4 147.2z"  horiz-adv-x="1024" />

    
    <glyph glyph-name="bangzhufankui-copy" unicode="&#58880;" d="M511.707-105.556c-60.403 0-119.008 11.835-174.191 35.175-53.291 22.539-101.145 54.803-142.235 95.893-41.091 41.091-73.354 88.946-95.894 142.235-23.341 55.183-35.175 113.79-35.175 174.192s11.835 119.009 35.175 174.192c22.54 53.29 54.803 101.145 95.894 142.235 41.091 41.091 88.946 73.355 142.235 95.894 55.182 23.34 113.789 35.174 174.191 35.174 60.403 0 119.009-11.835 174.192-35.175 53.29-22.539 101.146-54.803 142.235-95.893 41.091-41.091 73.355-88.946 95.894-142.235 23.341-55.183 35.175-113.79 35.175-174.192s-11.835-119.009-35.175-174.192c-22.539-53.29-54.803-101.145-95.894-142.235-41.090-41.090-88.946-73.354-142.235-95.893-55.184-23.341-113.79-35.175-174.192-35.175zM511.707 748.503c-54.895 0-108.136-10.747-158.246-31.941-48.412-20.476-91.893-49.794-129.237-87.138-37.345-37.346-66.662-80.827-87.139-129.237-21.195-50.11-31.941-103.352-31.941-158.247 0-54.895 10.747-108.137 31.941-158.247 20.476-48.411 49.794-91.893 87.139-129.237s80.826-66.662 129.237-87.138c50.11-21.195 103.352-31.941 158.246-31.941s108.137 10.747 158.247 31.941c48.412 20.476 91.893 49.793 129.237 87.138s66.663 80.827 87.139 129.237c21.195 50.11 31.941 103.352 31.941 158.247 0 54.895-10.747 108.137-31.941 158.247-20.476 48.411-49.794 91.892-87.139 129.236s-80.826 66.662-129.237 87.139c-50.111 21.195-103.353 31.941-158.247 31.941zM363.692 439.45c0.952 29.122 4.656 51.933 11.103 68.408s17.303 31.518 32.592 45.128c15.278 13.61 32.346 23.638 51.216 30.085 18.86 6.447 38.323 9.67 58.38 9.67 42.497 0 77.238-12.066 104.224-36.174 26.973-24.119 40.472-56.476 40.472-97.061 0-20.538-4.063-38.21-12.176-53.007-8.126-14.807-25.787-34.864-53.008-60.17-29.614-28.183-47.758-48.956-54.439-62.319-6.693-13.375-10.029-35.58-10.029-66.617h-49.426c0.952 28.171 5.484 51.933 13.61 71.273 8.115 19.339 25.899 43.090 53.365 71.272 27.455 28.172 44.647 48.105 51.575 59.812 6.917 11.696 10.386 26.38 10.386 44.053 0 26.739-8.72 48.228-26.145 64.468-17.438 16.229-40.954 24.355-70.557 24.355-63.999 0-98.851-37.729-104.582-113.178h-46.559zM537.040 91.322h-55.156v58.738h55.156v-58.738z"  horiz-adv-x="1024" />

    
    <glyph glyph-name="shenglve" unicode="&#58891;" d="M292.768415 446.306045c2.490727-0.514723 4.989641-0.98749 7.468089-1.551333 28.956495-6.587022 48.828079-32.893154 47.590901-62.97938-1.187035-28.850072-23.508413-53.386908-52.383044-57.604976-0.904603-0.132006-1.784646-0.432859-2.675946-0.654915h-12.558014c-0.773619 0.208754-1.535983 0.497327-2.322905 0.615007-26.221198 3.89061-46.433542 23.107277-51.662636 49.134047-0.360204 1.792832-0.753153 3.578502-1.130754 5.368264v12.558014c0.234337 0.992607 0.537236 1.972934 0.694825 2.976797 3.901867 24.797779 21.982664 44.51075 46.302559 50.418297 2.687202 0.652869 5.412266 1.151219 8.119935 1.722224 4.184299-0.002047 8.370645-0.002047 12.55699-0.002046zM505.228271 323.514417c-2.490727 0.514723-4.990664 0.98749-7.469112 1.550309-28.956495 6.588045-48.828079 32.894178-47.590901 62.980403 1.187035 28.850072 23.50739 53.386908 52.384068 57.603953 0.904603 0.132006 1.784646 0.432859 2.675945 0.655939h12.556991c2.490727-0.514723 4.990664-0.98749 7.469112-1.551332 28.956495-6.587022 48.829102-32.893154 47.590901-62.97938-1.186012-28.850072-23.50739-53.386908-52.383044-57.604976-0.904603-0.132006-1.784646-0.432859-2.675946-0.654916h-12.558014zM729.919706 323.514417c-2.490727 0.514723-4.990664 0.98749-7.469112 1.550309-28.957519 6.588045-48.829102 32.894178-47.590901 62.980403 1.186012 28.850072 23.50739 53.386908 52.383044 57.603953 0.904603 0.132006 1.784646 0.432859 2.675946 0.655939h12.55699c0.774643-0.208754 1.535983-0.49835 2.323929-0.615007 26.221198-3.89061 46.433542-23.108301 51.661613-49.134047 0.361227-1.792832 0.753153-3.579525 1.130754-5.368264v-12.558014c-0.234337-0.991584-0.536212-1.972934-0.694825-2.976798-3.901867-24.797779-21.982664-44.51075-46.302559-50.418296-2.687202-0.653893-5.411243-1.151219-8.119935-1.722224-4.183276 0.002047-8.368598 0.002047-12.554944 0.002046z"  horiz-adv-x="1024" />

    


  </font>
</defs>
</svg>
